<svg xmlns="http://www.w3.org/2000/svg">
    <!-- linkedin icon -->
    <symbol id="linkedin-icon" version="1.0" viewBox="0 0 32 32" xml:space="preserve">
        <g fill="#fbfbfc" class="fill-007bb5">
            <path
                d="M0 9h7v23H0zM24.003 9C20 9 18.89 10.312 18 12V9h-7v23h7V19c0-2 0-4 3.5-4s3.5 2 3.5 4v13h7V19c0-6-1-10-7.997-10z">
            </path>
            <circle cx="3.5" cy="3.5" r="3.5"></circle>
        </g>
    </symbol>

    <!-- mail icon -->
    <symbol class="mail-icon" viewBox="0 -960 960 960" fill="#fbfbfc">
        <path
            d="M160-160q-33 0-56.5-23.5T80-240v-480q0-33 23.5-56.5T160-800h640q33 0 56.5 23.5T880-720v480q0 33-23.5 56.5T800-160H160Zm320-280L160-640v400h640v-400L480-440Zm0-80 320-200H160l320 200ZM160-640v-80 480-400Z" />
    </symbol>

    <!-- skype icon -->
    <symbol id="skype-icon" viewBox="0 0 128 128" xml:space="preserve">
        <path fill="none" d="M0 0h128v128H0z"></path>
        <path clip-rule="evenodd"
            d="M95.992 93.435c-2.822 3.947-6.992 7.063-12.41 9.274-5.351 2.196-11.763 3.316-19.071 3.316-8.768 0-16.12-1.521-21.863-4.526-4.102-2.181-7.481-5.134-10.047-8.799-2.596-3.68-3.906-7.337-3.906-10.876 0-2.196.858-4.11 2.544-5.676 1.671-1.558 3.816-2.337 6.374-2.337 2.092 0 3.906.616 5.373 1.84 1.407 1.18 2.611 2.923 3.582 5.156 1.084 2.448 2.258 4.511 3.5 6.121 1.204 1.573 2.928 2.886 5.125 3.917 2.213 1.024 5.2 1.558 8.865 1.558 5.05 0 9.189-1.068 12.297-3.16 3.048-2.04 4.523-4.503 4.523-7.515 0-2.367-.775-4.236-2.356-5.705-1.671-1.528-3.861-2.715-6.517-3.546-2.777-.846-6.54-1.773-11.198-2.738-6.344-1.335-11.725-2.916-16-4.718-4.38-1.832-7.91-4.377-10.491-7.56-2.619-3.242-3.951-7.3-3.951-12.071 0-4.54 1.392-8.643 4.147-12.175 2.724-3.509 6.713-6.254 11.853-8.116 5.065-1.847 11.086-2.782 17.912-2.782 5.449 0 10.243.623 14.246 1.855 4.026 1.232 7.413 2.893 10.077 4.948 2.687 2.077 4.689 4.281 5.938 6.581 1.264 2.322 1.912 4.629 1.912 6.863 0 2.152-.843 4.11-2.506 5.809-1.671 1.721-3.786 2.589-6.269 2.589-2.258 0-4.034-.549-5.253-1.617-1.144-1.002-2.333-2.56-3.65-4.785-1.52-2.849-3.364-5.097-5.479-6.685-2.055-1.543-5.479-2.315-10.198-2.315-4.365 0-7.932.861-10.574 2.574-2.544 1.64-3.785 3.531-3.785 5.772 0 1.365.399 2.515 1.227 3.494.858 1.053 2.085 1.959 3.635 2.73a26.829 26.829 0 0 0 4.914 1.877c1.693.467 4.538 1.157 8.444 2.048 4.944 1.039 9.483 2.218 13.494 3.487 4.071 1.276 7.579 2.849 10.453 4.696 2.92 1.877 5.23 4.281 6.879 7.159 1.648 2.901 2.484 6.462 2.484 10.609.001 4.956-1.444 9.475-4.274 13.429zm28.328-15.847a59.501 59.501 0 0 0 1.407-12.924c0-33.237-27.326-60.19-61.05-60.19-3.552 0-7.037.304-10.438.883A35.57 35.57 0 0 0 35.409 0C15.849 0 0 15.624 0 34.914c0 6.44 1.776 12.464 4.862 17.657a59.851 59.851 0 0 0-1.234 12.093c0 33.252 27.334 60.198 61.05 60.198 3.823 0 7.556-.349 11.183-1.009A35.656 35.656 0 0 0 92.598 128C112.151 128 128 112.368 128 93.094a34.342 34.342 0 0 0-3.68-15.506z"
            fill="#fbfbfc" fill-rule="evenodd" class="fill-00aef3"></path>
    </symbol>

    <!-- whatsapp icon -->
    <symbol id="whatsapp-icon" viewBox="0 0 512 512" xml:space="preserve" fill-rule="evenodd" clip-rule="evenodd"
        stroke-linejoin="round" stroke-miterlimit="2">
        <path
            d="M373.295 307.064c-6.37-3.188-37.687-18.596-43.526-20.724-5.838-2.126-10.084-3.187-14.331 3.188-4.246 6.376-16.454 20.725-20.17 24.976-3.715 4.251-7.431 4.785-13.8 1.594-6.37-3.187-26.895-9.913-51.225-31.616-18.935-16.89-31.72-37.749-35.435-44.126-3.716-6.377-.397-9.824 2.792-13 2.867-2.854 6.371-7.44 9.555-11.16 3.186-3.718 4.247-6.377 6.37-10.626 2.123-4.252 1.062-7.971-.532-11.159-1.591-3.188-14.33-34.542-19.638-47.298-5.171-12.419-10.422-10.737-14.332-10.934-3.711-.184-7.963-.223-12.208-.223-4.246 0-11.148 1.594-16.987 7.969-5.838 6.377-22.293 21.789-22.293 53.14 0 31.355 22.824 61.642 26.009 65.894 3.185 4.252 44.916 68.59 108.816 96.181 15.196 6.564 27.062 10.483 36.312 13.418 15.259 4.849 29.145 4.165 40.121 2.524 12.238-1.827 37.686-15.408 42.995-30.286 5.307-14.882 5.307-27.635 3.715-30.292-1.592-2.657-5.838-4.251-12.208-7.44M257.071 465.757h-.086c-38.022-.015-75.313-10.23-107.845-29.535l-7.738-4.592-80.194 21.037 21.405-78.19-5.037-8.017c-21.211-33.735-32.414-72.726-32.397-112.763.047-116.825 95.1-211.87 211.976-211.87 56.595.019 109.795 22.088 149.801 62.139 40.005 40.05 62.023 93.286 62.001 149.902-.048 116.834-95.1 211.889-211.886 211.889M437.403 73.533C389.272 25.347 325.265-1.202 257.068-1.23 116.554-1.23 2.193 113.124 2.136 253.681c-.018 44.932 11.72 88.786 34.03 127.448L0 513.231l135.141-35.45c37.236 20.31 79.159 31.015 121.826 31.029h.105c140.499 0 254.87-114.366 254.928-254.925.026-68.117-26.467-132.166-74.597-180.352"
            fill="#fbfbfc" class="fill-000000"></path>
    </symbol>

    <!-- send mail icon -->
    <symbol id="send-mail-icon" viewBox="0 0 24 24">
        <path
            d="M22.984.638a.5.5 0 0 0-.718-.559L1.783 10.819a1.461 1.461 0 0 0-.1 2.527l4.56 2.882a.25.25 0 0 0 .3-.024L18.7 5.336a.249.249 0 0 1 .361.342L9.346 17.864a.25.25 0 0 0 .062.367L15.84 22.3a1.454 1.454 0 0 0 2.19-.895ZM7.885 19.182a.251.251 0 0 0-.385.211v3.585a1 1 0 0 0 1.707.707l2.018-2.017a.251.251 0 0 0-.043-.388Z"
            fill="#fbfbfc" class="fill-000000"></path>
    </symbol>
</svg>
